<svg width="200" height="200" viewBox="0 0 200 200" fill="none" xmlns="http://www.w3.org/2000/svg">
  <defs>
    <linearGradient id="brainGold" x1="0%" y1="0%" x2="100%" y2="100%">
      <stop offset="0%" style="stop-color:#E8C170;stop-opacity:1" />
      <stop offset="100%" style="stop-color:#D4AF37;stop-opacity:1" />
    </linearGradient>
  </defs>
  
  <!-- Brain outline with circuit board pattern -->
  <path d="M100 20 C120 20, 140 30, 150 45 C155 52, 158 60, 160 68 C162 75, 163 82, 163 90 C163 98, 162 105, 160 112 C158 120, 155 128, 150 135 C145 142, 138 148, 130 153 C122 158, 113 161, 103 162 C97 163, 97 163, 100 170 C103 177, 108 182, 115 185 C122 188, 130 188, 137 185 C143 182, 148 177, 150 170 C152 163, 152 155, 150 148 C155 143, 158 137, 160 130 C162 123, 163 115, 163 108 C163 95, 160 82, 153 70 C146 58, 135 48, 122 42 C109 36, 95 34, 82 36 C69 38, 57 44, 48 53 C39 62, 33 74, 31 87 C29 100, 31 113, 37 125 C43 137, 52 147, 64 154 C76 161, 90 165, 104 165" 
        stroke="url(#brainGold)" 
        stroke-width="6" 
        stroke-linecap="round" 
        stroke-linejoin="round" 
        fill="none"/>
  
  <!-- Circuit connections -->
  <circle cx="70" cy="80" r="6" fill="url(#brainGold)"/>
  <circle cx="90" cy="70" r="6" fill="url(#brainGold)"/>
  <circle cx="110" cy="75" r="6" fill="url(#brainGold)"/>
  <circle cx="130" cy="85" r="6" fill="url(#brainGold)"/>
  
  <circle cx="60" cy="110" r="6" fill="url(#brainGold)"/>
  <circle cx="85" cy="120" r="6" fill="url(#brainGold)"/>
  <circle cx="110" cy="115" r="6" fill="url(#brainGold)"/>
  <circle cx="135" cy="105" r="6" fill="url(#brainGold)"/>
  
  <circle cx="75" cy="140" r="6" fill="url(#brainGold)"/>
  <circle cx="100" cy="145" r="6" fill="url(#brainGold)"/>
  <circle cx="125" cy="135" r="6" fill="url(#brainGold)"/>
  
  <!-- Connection lines -->
  <line x1="70" y1="80" x2="90" y2="70" stroke="url(#brainGold)" stroke-width="3"/>
  <line x1="90" y1="70" x2="110" y2="75" stroke="url(#brainGold)" stroke-width="3"/>
  <line x1="110" y1="75" x2="130" y2="85" stroke="url(#brainGold)" stroke-width="3"/>
  
  <line x1="60" y1="110" x2="85" y2="120" stroke="url(#brainGold)" stroke-width="3"/>
  <line x1="85" y1="120" x2="110" y2="115" stroke="url(#brainGold)" stroke-width="3"/>
  <line x1="110" y1="115" x2="135" y2="105" stroke="url(#brainGold)" stroke-width="3"/>
  
  <line x1="75" y1="140" x2="100" y2="145" stroke="url(#brainGold)" stroke-width="3"/>
  <line x1="100" y1="145" x2="125" y2="135" stroke="url(#brainGold)" stroke-width="3"/>
  
  <!-- Vertical connections -->
  <line x1="70" y1="80" x2="60" y2="110" stroke="url(#brainGold)" stroke-width="3"/>
  <line x1="90" y1="70" x2="85" y2="120" stroke="url(#brainGold)" stroke-width="3"/>
  <line x1="110" y1="75" x2="110" y2="115" stroke="url(#brainGold)" stroke-width="3"/>
  <line x1="130" y1="85" x2="135" y2="105" stroke="url(#brainGold)" stroke-width="3"/>
</svg>

