<svg width="400" height="400" viewBox="0 0 400 400" fill="none" xmlns="http://www.w3.org/2000/svg">
  <defs>
    <linearGradient id="goldGradient" x1="0%" y1="0%" x2="100%" y2="100%">
      <stop offset="0%" style="stop-color:#E8C170;stop-opacity:1" />
      <stop offset="100%" style="stop-color:#D4AF37;stop-opacity:1" />
    </linearGradient>
  </defs>
  
  <!-- Brain/Tree outline - left hemisphere -->
  <path d="M 120 100 Q 100 90, 90 110 Q 85 130, 95 145 Q 100 155, 110 150" 
        stroke="url(#goldGradient)" stroke-width="12" fill="none" stroke-linecap="round"/>
  
  <path d="M 110 150 Q 100 170, 95 190 Q 90 210, 105 225" 
        stroke="url(#goldGradient)" stroke-width="12" fill="none" stroke-linecap="round"/>
  
  <path d="M 105 225 Q 95 245, 100 265 Q 105 285, 120 295" 
        stroke="url(#goldGradient)" stroke-width="12" fill="none" stroke-linecap="round"/>
  
  <path d="M 120 295 Q 105 310, 110 330 Q 120 350, 145 360" 
        stroke="url(#goldGradient)" stroke-width="12" fill="none" stroke-linecap="round"/>
  
  <path d="M 145 360 Q 165 370, 185 365" 
        stroke="url(#goldGradient)" stroke-width="12" fill="none" stroke-linecap="round"/>
  
  <!-- Brain/Tree outline - right hemisphere -->
  <path d="M 280 100 Q 300 90, 310 110 Q 315 130, 305 145 Q 300 155, 290 150" 
        stroke="url(#goldGradient)" stroke-width="12" fill="none" stroke-linecap="round"/>
  
  <path d="M 290 150 Q 300 170, 305 190 Q 310 210, 295 225" 
        stroke="url(#goldGradient)" stroke-width="12" fill="none" stroke-linecap="round"/>
  
  <path d="M 295 225 Q 305 245, 300 265 Q 295 285, 280 295" 
        stroke="url(#goldGradient)" stroke-width="12" fill="none" stroke-linecap="round"/>
  
  <path d="M 280 295 Q 295 310, 290 330 Q 280 350, 255 360" 
        stroke="url(#goldGradient)" stroke-width="12" fill="none" stroke-linecap="round"/>
  
  <path d="M 255 360 Q 235 370, 215 365" 
        stroke="url(#goldGradient)" stroke-width="12" fill="none" stroke-linecap="round"/>
  
  <!-- Center stem -->
  <line x1="200" y1="80" x2="200" y2="370" stroke="url(#goldGradient)" stroke-width="14" stroke-linecap="round"/>
  
  <!-- Left side circuits -->
  <circle cx="110" cy="120" r="10" fill="url(#goldGradient)"/>
  <circle cx="130" cy="140" r="8" fill="url(#goldGradient)"/>
  <circle cx="105" cy="160" r="9" fill="url(#goldGradient)"/>
  <circle cx="125" cy="180" r="10" fill="url(#goldGradient)"/>
  <circle cx="95" cy="200" r="8" fill="url(#goldGradient)"/>
  <circle cx="115" cy="220" r="9" fill="url(#goldGradient)"/>
  <circle cx="100" cy="245" r="10" fill="url(#goldGradient)"/>
  <circle cx="125" cy="265" r="8" fill="url(#goldGradient)"/>
  <circle cx="110" cy="285" r="9" fill="url(#goldGradient)"/>
  <circle cx="130" cy="305" r="10" fill="url(#goldGradient)"/>
  <circle cx="120" cy="330" r="8" fill="url(#goldGradient)"/>
  <circle cx="145" cy="345" r="9" fill="url(#goldGradient)"/>
  
  <!-- Right side circuits -->
  <circle cx="290" cy="120" r="10" fill="url(#goldGradient)"/>
  <circle cx="270" cy="140" r="8" fill="url(#goldGradient)"/>
  <circle cx="295" cy="160" r="9" fill="url(#goldGradient)"/>
  <circle cx="275" cy="180" r="10" fill="url(#goldGradient)"/>
  <circle cx="305" cy="200" r="8" fill="url(#goldGradient)"/>
  <circle cx="285" cy="220" r="9" fill="url(#goldGradient)"/>
  <circle cx="300" cy="245" r="10" fill="url(#goldGradient)"/>
  <circle cx="275" cy="265" r="8" fill="url(#goldGradient)"/>
  <circle cx="290" cy="285" r="9" fill="url(#goldGradient)"/>
  <circle cx="270" cy="305" r="10" fill="url(#goldGradient)"/>
  <circle cx="280" cy="330" r="8" fill="url(#goldGradient)"/>
  <circle cx="255" cy="345" r="9" fill="url(#goldGradient)"/>
  
  <!-- Connection lines - left side -->
  <line x1="110" y1="120" x2="130" y2="140" stroke="url(#goldGradient)" stroke-width="4"/>
  <line x1="130" y1="140" x2="105" y2="160" stroke="url(#goldGradient)" stroke-width="4"/>
  <line x1="105" y1="160" x2="125" y2="180" stroke="url(#goldGradient)" stroke-width="4"/>
  <line x1="125" y1="180" x2="95" y2="200" stroke="url(#goldGradient)" stroke-width="4"/>
  <line x1="95" y1="200" x2="115" y2="220" stroke="url(#goldGradient)" stroke-width="4"/>
  <line x1="115" y1="220" x2="100" y2="245" stroke="url(#goldGradient)" stroke-width="4"/>
  <line x1="100" y1="245" x2="125" y2="265" stroke="url(#goldGradient)" stroke-width="4"/>
  <line x1="125" y1="265" x2="110" y2="285" stroke="url(#goldGradient)" stroke-width="4"/>
  <line x1="110" y1="285" x2="130" y2="305" stroke="url(#goldGradient)" stroke-width="4"/>
  <line x1="130" y1="305" x2="120" y2="330" stroke="url(#goldGradient)" stroke-width="4"/>
  <line x1="120" y1="330" x2="145" y2="345" stroke="url(#goldGradient)" stroke-width="4"/>
  
  <!-- Connection lines - right side -->
  <line x1="290" y1="120" x2="270" y2="140" stroke="url(#goldGradient)" stroke-width="4"/>
  <line x1="270" y1="140" x2="295" y2="160" stroke="url(#goldGradient)" stroke-width="4"/>
  <line x1="295" y1="160" x2="275" y2="180" stroke="url(#goldGradient)" stroke-width="4"/>
  <line x1="275" y1="180" x2="305" y2="200" stroke="url(#goldGradient)" stroke-width="4"/>
  <line x1="305" y1="200" x2="285" y2="220" stroke="url(#goldGradient)" stroke-width="4"/>
  <line x1="285" y1="220" x2="300" y2="245" stroke="url(#goldGradient)" stroke-width="4"/>
  <line x1="300" y1="245" x2="275" y2="265" stroke="url(#goldGradient)" stroke-width="4"/>
  <line x1="275" y1="265" x2="290" y2="285" stroke="url(#goldGradient)" stroke-width="4"/>
  <line x1="290" y1="285" x2="270" y2="305" stroke="url(#goldGradient)" stroke-width="4"/>
  <line x1="270" y1="305" x2="280" y2="330" stroke="url(#goldGradient)" stroke-width="4"/>
  <line x1="280" y1="330" x2="255" y2="345" stroke="url(#goldGradient)" stroke-width="4"/>
  
  <!-- Cross connections to center -->
  <line x1="110" y1="120" x2="200" y2="120" stroke="url(#goldGradient)" stroke-width="3" opacity="0.6"/>
  <line x1="290" y1="120" x2="200" y2="120" stroke="url(#goldGradient)" stroke-width="3" opacity="0.6"/>
  <line x1="125" y1="180" x2="200" y2="180" stroke="url(#goldGradient)" stroke-width="3" opacity="0.6"/>
  <line x1="275" y1="180" x2="200" y2="180" stroke="url(#goldGradient)" stroke-width="3" opacity="0.6"/>
  <line x1="100" y1="245" x2="200" y2="245" stroke="url(#goldGradient)" stroke-width="3" opacity="0.6"/>
  <line x1="300" y1="245" x2="200" y2="245" stroke="url(#goldGradient)" stroke-width="3" opacity="0.6"/>
  <line x1="130" y1="305" x2="200" y2="305" stroke="url(#goldGradient)" stroke-width="3" opacity="0.6"/>
  <line x1="270" y1="305" x2="200" y2="305" stroke="url(#goldGradient)" stroke-width="3" opacity="0.6"/>
  
  <!-- Root system -->
  <path d="M 200 370 Q 180 380, 165 390" stroke="url(#goldGradient)" stroke-width="10" fill="none" stroke-linecap="round"/>
  <path d="M 200 370 Q 220 380, 235 390" stroke="url(#goldGradient)" stroke-width="10" fill="none" stroke-linecap="round"/>
  <path d="M 200 370 Q 200 385, 200 395" stroke="url(#goldGradient)" stroke-width="8" fill="none" stroke-linecap="round"/>
</svg>
